<?xml version="1.0" encoding="UTF-8" standalone="no"?>
<!-- Created with Inkscape (http://www.inkscape.org/) -->

<svg
   xmlns:dc="http://purl.org/dc/elements/1.1/"
   xmlns:cc="http://creativecommons.org/ns#"
   xmlns:rdf="http://www.w3.org/1999/02/22-rdf-syntax-ns#"
   xmlns:svg="http://www.w3.org/2000/svg"
   xmlns="http://www.w3.org/2000/svg"
   xmlns:sodipodi="http://sodipodi.sourceforge.net/DTD/sodipodi-0.dtd"
   xmlns:inkscape="http://www.inkscape.org/namespaces/inkscape"
   width="210mm"
   height="297mm"
   viewBox="0 0 210 297"
   version="1.1"
   id="svg8"
   inkscape:export-filename="C:\Users\bruce\Desktop\emojityper.png"
   inkscape:export-xdpi="200.05499"
   inkscape:export-ydpi="200.05499"
   inkscape:version="0.92.2 (5c3e80d, 2017-08-06)"
   sodipodi:docname="iconVector.svg">
  <defs
     id="defs2" />
  <sodipodi:namedview
     id="base"
     pagecolor="#ffffff"
     bordercolor="#666666"
     borderopacity="1.0"
     inkscape:pageopacity="0.0"
     inkscape:pageshadow="2"
     inkscape:zoom="7.9195959"
     inkscape:cx="80.034676"
     inkscape:cy="1084.7857"
     inkscape:document-units="mm"
     inkscape:current-layer="layer1"
     showgrid="false"
     inkscape:window-width="2560"
     inkscape:window-height="1017"
     inkscape:window-x="1912"
     inkscape:window-y="-8"
     inkscape:window-maximized="1" />
  <metadata
     id="metadata5">
    <rdf:RDF>
      <cc:Work
         rdf:about="">
        <dc:format>image/svg+xml</dc:format>
        <dc:type
           rdf:resource="http://purl.org/dc/dcmitype/StillImage" />
        <dc:title></dc:title>
      </cc:Work>
    </rdf:RDF>
  </metadata>
  <g
     inkscape:label="Layer 1"
     inkscape:groupmode="layer"
     id="layer1">
    <rect
       style="opacity:1;fill:none;fill-opacity:1;stroke:#949494;stroke-width:1;stroke-linecap:butt;stroke-linejoin:miter;stroke-miterlimit:4;stroke-dasharray:none;stroke-dashoffset:0;stroke-opacity:1;paint-order:stroke markers fill"
       id="rect815"
       width="12.166107"
       height="12.284225"
       x="15.544271"
       y="2.2730649"
       ry="0.8504464" />
    <rect
       ry="0.78592086"
       y="2.4382305"
       x="16.005808"
       height="11.352192"
       width="11.243036"
       id="rect817"
       style="opacity:1;fill:none;fill-opacity:1;stroke:#949494;stroke-width:0.92412758;stroke-linecap:butt;stroke-linejoin:miter;stroke-miterlimit:4;stroke-dasharray:none;stroke-dashoffset:0;stroke-opacity:1;paint-order:stroke markers fill" />
    <g
       transform="matrix(0.12776382,0,0,0.12776382,17.063572,3.0266548)"
       id="color">
      <circle
         style="fill:#fcea2b"
         cx="36"
         cy="36"
         r="24"
         id="circle2" />
      <path
         style="fill:#ffffff"
         inkscape:connector-curvature="0"
         d="m 50.595,41.64 a 11.5554,11.5554 0 0 1 -0.87,4.49 C 37.235,49.16 24.295,46.47 22.235,46 a 11.4347,11.4347 0 0 1 -0.83,-4.36 h 0.11 c 0,0 14.8,3.59 28.89,0.07 z"
         id="path4" />
      <path
         style="fill:#ea5a47"
         inkscape:connector-curvature="0"
         d="m 49.7251,46.13 c -1.79,4.27 -6.35,7.23 -13.69,7.23 -7.41,0 -12.03,-3.03 -13.8,-7.36 2.06,0.47 14.9999,3.16 27.49,0.13 z"
         id="path6" />
      <path
         style="fill:#92d3f5"
         inkscape:connector-curvature="0"
         d="m 65.7563,47.3378 a 4.2418,4.2418 0 0 1 -6.001,10e-4 c -2.9718,-2.9717 -3.0059,-8.961 -3.0063,-9.0208 0.2314,0.0131 6.0508,0.0625 9.0073,3.019 a 4.2411,4.2411 0 0 1 0,6.0008 z"
         id="path8" />
      <path
         style="fill:#92d3f5"
         inkscape:connector-curvature="0"
         d="M 6.2392,47.3385 A 4.242,4.242 0 0 1 6.2381,41.3374 c 2.9717,-2.9717 8.9611,-3.0059 9.0208,-3.0063 -0.0131,0.2314 -0.0625,6.0509 -3.019,9.0074 a 4.2412,4.2412 0 0 1 -6.0007,0 z"
         id="path10" />
    </g>
    <g
       transform="matrix(0.12776382,0,0,0.12776382,17.063572,3.0266548)"
       id="hair" />
    <g
       transform="matrix(0.12776382,0,0,0.12776382,17.063572,3.0266548)"
       id="skin" />
    <g
       transform="matrix(0.12776382,0,0,0.12776382,17.063572,3.0266548)"
       id="skin-shadow" />
    <g
       transform="matrix(0.12776382,0,0,0.12776382,17.063572,3.0266548)"
       id="line">
      <path
         style="fill:none;stroke:#000000;stroke-width:2;stroke-linecap:round;stroke-linejoin:round"
         inkscape:connector-curvature="0"
         d="m 58.8479,33.3406 q -0.01,-0.0839 -0.02,-0.1675 A 23.0031,23.0031 0 0 0 13.2041,32.92 c -0.0148,0.1069 -0.0386,0.3127 -0.052,0.42"
         id="path16" />
      <path
         style="fill:none;stroke:#000000;stroke-width:2;stroke-linecap:round;stroke-linejoin:round"
         inkscape:connector-curvature="0"
         d="M 17.1832,49.229 A 23.5314,23.5314 0 0 0 36,59 23.3428,23.3428 0 0 0 54.7572,49.3129"
         id="path18" />
      <path
         style="fill:none;stroke:#000000;stroke-width:2;stroke-linecap:round;stroke-linejoin:round"
         inkscape:connector-curvature="0"
         d="m 20.6948,28.2 a 6.3062,6.3062 0 0 1 3.3907,-3 6.3038,6.3038 0 0 1 4.53,-0.4209"
         id="path20" />
      <path
         style="fill:none;stroke:#000000;stroke-width:2;stroke-linecap:round;stroke-linejoin:round"
         inkscape:connector-curvature="0"
         d="M 51.3052,28.2 A 7.19,7.19 0 0 0 43.396,24.77"
         id="path22" />
      <path
         style="fill:none;stroke:#000000;stroke-width:2;stroke-linecap:round;stroke-linejoin:round"
         inkscape:connector-curvature="0"
         d="m 50.595,41.64 a 11.5554,11.5554 0 0 1 -0.87,4.49 C 37.235,49.16 24.295,46.47 22.235,46 a 11.4347,11.4347 0 0 1 -0.83,-4.36 h 0.11 c 0,0 14.8,3.59 28.89,0.07 z"
         id="path24" />
      <path
         style="fill:none;stroke:#000000;stroke-width:2;stroke-linecap:round;stroke-linejoin:round"
         inkscape:connector-curvature="0"
         d="m 49.7251,46.13 c -1.79,4.27 -6.35,7.23 -13.69,7.23 -7.41,0 -12.03,-3.03 -13.8,-7.36 2.06,0.47 14.9999,3.16 27.49,0.13 z"
         id="path26" />
      <path
         style="fill:none;stroke:#000000;stroke-width:2;stroke-linejoin:round"
         inkscape:connector-curvature="0"
         d="m 65.7563,47.3378 a 4.2418,4.2418 0 0 1 -6.001,10e-4 c -2.9718,-2.9717 -3.0059,-8.961 -3.0063,-9.0208 0.2314,0.0131 6.0508,0.0625 9.0073,3.019 a 4.2411,4.2411 0 0 1 0,6.0008 z"
         id="path28" />
      <path
         style="fill:none;stroke:#000000;stroke-width:2;stroke-linejoin:round"
         inkscape:connector-curvature="0"
         d="M 6.2392,47.3385 A 4.242,4.242 0 0 1 6.2381,41.3374 c 2.9717,-2.9717 8.9611,-3.0059 9.0208,-3.0063 -0.0131,0.2314 -0.0625,6.0509 -3.019,9.0074 a 4.2412,4.2412 0 0 1 -6.0007,0 z"
         id="path30" />
      <path
         style="fill:none;stroke:#000000;stroke-width:2;stroke-linecap:round;stroke-miterlimit:10"
         inkscape:connector-curvature="0"
         stroke-miterlimit="10"
         d="m 31.6941,35.1642 a 4.7263,4.7263 0 0 0 -8.6382,0"
         id="path32" />
      <path
         style="fill:none;stroke:#000000;stroke-width:2;stroke-linecap:round;stroke-miterlimit:10"
         inkscape:connector-curvature="0"
         stroke-miterlimit="10"
         d="m 48.9441,35.1642 a 4.7263,4.7263 0 0 0 -8.6382,0"
         id="path34" />
    </g>
    <rect
       style="opacity:1;fill:none;fill-opacity:1;stroke:#949494;stroke-width:0.86501205;stroke-linecap:butt;stroke-linejoin:miter;stroke-miterlimit:4;stroke-dasharray:none;stroke-dashoffset:0;stroke-opacity:1;paint-order:stroke markers fill"
       id="rect863"
       width="10.327839"
       height="10.827652"
       x="16.463406"
       y="2.5007288"
       ry="0.74960661" />
  </g>
</svg>
